<svg width="16" height="16" viewBox="0 0 16 16" fill="none" xmlns="http://www.w3.org/2000/svg">
<path d="M0 8C0 7.26667 0.0944444 6.56111 0.283333 5.88333C0.477778 5.2 0.747222 4.56111 1.09167 3.96667C1.44167 3.37222 1.85833 2.83333 2.34167 2.35C2.83056 1.86111 3.37222 1.44444 3.96667 1.1C4.56111 0.75 5.19722 0.480556 5.875 0.291667C6.55833 0.0972222 7.26667 0 8 0C8.73333 0 9.43889 0.0972222 10.1167 0.291667C10.8 0.480556 11.4361 0.75 12.025 1.1C12.6194 1.44444 13.1611 1.86111 13.65 2.35C14.1389 2.83889 14.5556 3.38056 14.9 3.975C15.25 4.56389 15.5194 5.2 15.7083 5.88333C15.9028 6.56111 16 7.26667 16 8C16 8.73333 15.9028 9.44167 15.7083 10.125C15.5194 10.8028 15.25 11.4389 14.9 12.0333C14.5556 12.6278 14.1389 13.1694 13.65 13.6583C13.1667 14.1417 12.6278 14.5583 12.0333 14.9083C11.4389 15.2528 10.8 15.5222 10.1167 15.7167C9.43889 15.9056 8.73333 16 8 16C7.26111 16 6.55 15.9056 5.86667 15.7167C5.18889 15.5222 4.55278 15.2528 3.95833 14.9083C3.36944 14.5583 2.83056 14.1417 2.34167 13.6583C1.85833 13.1694 1.44167 12.6306 1.09167 12.0417C0.747222 11.4472 0.477778 10.8083 0.283333 10.125C0.0944444 9.44167 0 8.73333 0 8ZM5.06667 11.6C5.15 11.6 5.23333 11.5833 5.31667 11.55C5.40555 11.5167 5.48056 11.4694 5.54167 11.4083L8 8.94167L10.4583 11.4083C10.5194 11.4694 10.5917 11.5167 10.675 11.55C10.7639 11.5833 10.85 11.6 10.9333 11.6C11.1222 11.6 11.2806 11.5361 11.4083 11.4083C11.5361 11.2806 11.6 11.1222 11.6 10.9333C11.6 10.7444 11.5361 10.5861 11.4083 10.4583L8.94167 8L11.4083 5.54167C11.5361 5.41389 11.6 5.25556 11.6 5.06667C11.6 4.87778 11.5361 4.71944 11.4083 4.59167C11.2806 4.46389 11.1222 4.4 10.9333 4.4C10.7444 4.4 10.5861 4.46389 10.4583 4.59167L8 7.05833L5.54167 4.59167C5.41389 4.46389 5.25556 4.4 5.06667 4.4C4.87778 4.4 4.71944 4.46389 4.59167 4.59167C4.46389 4.71944 4.4 4.87778 4.4 5.06667C4.4 5.15 4.41667 5.23611 4.45 5.325C4.48333 5.40833 4.53056 5.48056 4.59167 5.54167L7.05833 8L4.59167 10.4583C4.53056 10.5194 4.48333 10.5944 4.45 10.6833C4.41667 10.7667 4.4 10.85 4.4 10.9333C4.4 11.1167 4.46389 11.275 4.59167 11.4083C4.725 11.5361 4.88333 11.6 5.06667 11.6Z" fill="#D02B20"/>
</svg>
