<svg width="16" height="16" viewBox="0 0 16 16" fill="none" xmlns="http://www.w3.org/2000/svg">
<path d="M15.928 8C15.928 3.58172 12.3785 0 8 0C3.6215 0 0.0720215 3.58172 0.0720215 8C0.0720215 12.4183 3.6215 16 8 16C12.3785 16 15.928 12.4183 15.928 8ZM7.51248 6.91012C7.55444 6.67687 7.75675 6.49999 8 6.49999C8.24325 6.49999 8.44556 6.67687 8.48752 6.91012L8.4955 6.99999V11.5021L8.48752 11.592C8.44556 11.8253 8.24325 12.0021 8 12.0021C7.75675 12.0021 7.55444 11.8253 7.51248 11.592L7.5045 11.5021V6.99999L7.51248 6.91012ZM7.25675 4.74999C7.25675 4.33578 7.58951 3.99999 8 3.99999C8.41048 3.99999 8.74325 4.33578 8.74325 4.74999C8.74325 5.16421 8.41048 5.49999 8 5.49999C7.58951 5.49999 7.25675 5.16421 7.25675 4.74999Z" fill="#0C75AF"/>
</svg>
