<svg width="16" height="16" viewBox="0 0 16 16" fill="none" xmlns="http://www.w3.org/2000/svg">
<path d="M1.62198 16C1.40176 16 1.19283 15.9576 0.995198 15.8729C0.803209 15.7882 0.630984 15.6753 0.478523 15.5341C0.331708 15.3873 0.213126 15.2179 0.122779 15.0259C0.038078 14.8283 -0.00427246 14.6194 -0.00427246 14.3992C-0.00427246 14.1394 0.0521948 13.8909 0.165129 13.6538L6.54311 0.897829C6.68427 0.615493 6.88473 0.395271 7.14448 0.237162C7.40423 0.0790542 7.68939 0 7.99996 0C8.31053 0 8.59569 0.0790542 8.85544 0.237162C9.11519 0.395271 9.31565 0.615493 9.45682 0.897829L15.8348 13.6538C15.9477 13.8909 16.0042 14.1394 16.0042 14.3992C16.0042 14.6194 15.959 14.8283 15.8687 15.0259C15.784 15.2179 15.6654 15.3873 15.5129 15.5341C15.3661 15.6753 15.1939 15.7882 14.9963 15.8729C14.8043 15.9576 14.5982 16 14.3779 16H1.62198ZM8.54205 10.1726V5.83589C8.54205 5.68908 8.4884 5.56203 8.38112 5.45474C8.27383 5.34745 8.14678 5.29381 7.99996 5.29381C7.85315 5.29381 7.7261 5.34745 7.61881 5.45474C7.51152 5.56203 7.45788 5.68908 7.45788 5.83589V10.1726C7.45788 10.325 7.5087 10.4549 7.61034 10.5622C7.71763 10.6638 7.8475 10.7147 7.99996 10.7147C8.15242 10.7147 8.27947 10.6638 8.38112 10.5622C8.4884 10.4549 8.54205 10.325 8.54205 10.1726ZM8.81309 12.3409C8.81309 12.2336 8.7905 12.132 8.74533 12.036C8.7058 11.9344 8.64651 11.8468 8.56746 11.7734C8.49405 11.6944 8.40653 11.6351 8.30488 11.5956C8.20889 11.5504 8.10725 11.5278 7.99996 11.5278C7.88703 11.5278 7.77974 11.5504 7.6781 11.5956C7.5821 11.6407 7.4974 11.7 7.424 11.7734C7.35059 11.8468 7.2913 11.9344 7.24612 12.036C7.2066 12.1376 7.18683 12.2421 7.18683 12.3494C7.18683 12.4623 7.2066 12.5696 7.24612 12.6713C7.2913 12.7672 7.35059 12.8519 7.424 12.9254C7.50305 12.9931 7.59057 13.0496 7.68657 13.0948C7.78256 13.1343 7.88703 13.154 7.99996 13.154C8.22583 13.154 8.41782 13.075 8.57593 12.9169C8.73404 12.7588 8.81309 12.5668 8.81309 12.3409Z" fill="#DFB03E"/>
</svg>
