<svg viewBox="0 0 24 24" xmlns="http://www.w3.org/2000/svg"><path fill="currentColor" d="M12 2.16c3.2 0 3.58.01 4.85.07 1.17.05 1.8.25 2.23.41.56.22.96.48 1.38.9.42.42.68.82.9 1.38.16.42.36 1.06.41 2.23.06 1.27.07 1.65.07 4.85s-.01 3.58-.07 4.85c-.05 1.17-.25 1.8-.41 2.23-.22.56-.48.96-.9 1.38-.42.42-.82.68-1.38.9-.42.16-1.06.36-2.23.41-1.27.06-1.65.07-4.85.07s-3.58-.01-4.85-.07c-1.17-.05-1.8-.25-2.23-.41-.56-.22-.96-.48-1.38-.9-.42-.42-.68-.82-.9-1.38-.16-.42-.36-1.06-.41-2.23C2.17 15.58 2.16 15.2 2.16 12s.01-3.58.07-4.85c.05-1.17.25-1.8.41-2.23.22-.56.48-.96.9-1.38.42-.42.82-.68 1.38-.9.42-.16 1.06-.36 2.23-.41C8.42 2.17 8.8 2.16 12 2.16M12 0C8.74 0 8.33.01 7.05.07 5.78.13 4.9.33 4.14.63c-.79.31-1.46.72-2.12 1.38C1.36 2.67.95 3.34.63 4.14.33 4.9.13 5.78.07 7.05.01 8.33 0 8.74 0 12s.01 3.67.07 4.95c.06 1.27.26 2.15.56 2.91.31.79.72 1.46 1.38 2.12.66.66 1.33 1.07 2.12 1.38.76.3 1.64.5 2.91.56C8.33 23.99 8.74 24 12 24s3.67-.01 4.95-.07c1.27-.06 2.15-.26 2.91-.56.79-.31 1.46-.72 2.12-1.38.66-.66 1.07-1.33 1.38-2.12.3-.76.5-1.64.56-2.91.06-1.28.07-1.69.07-4.95s-.01-3.67-.07-4.95c-.06-1.27-.26-2.15-.56-2.91-.31-.79-.72-1.46-1.38-2.12C21.33 1.36 20.66.95 19.86.63 19.1.33 18.22.13 16.95.07 15.67.01 15.26 0 12 0z"/><path fill="currentColor" d="M12 5.84A6.16 6.16 0 1 0 18.16 12 6.16 6.16 0 0 0 12 5.84zm0 10.16A4 4 0 1 1 16 12a4 4 0 0 1-4 4z"/><circle fill="currentColor" cx="18.41" cy="5.59" r="1.44"/></svg>
